<?xml version="1.0" encoding="utf-8"?>
<svg viewBox="245.3 320.472 448.5 63.628" xmlns="http://www.w3.org/2000/svg">
  <defs>
    <style type="text/css">
	.st0{fill:#1A1A1A;}
	.st1{fill:#DCDCDC;}
	.st2{fill:url(#Path_1_3_);}
	.st3{fill:url(#Path_2_3_);}
	.st4{fill:url(#Path_1_4_);}
	.st5{fill:url(#Path_2_4_);}
	.st6{fill:url(#Path_1_5_);}
	.st7{fill:url(#Path_2_5_);}
</style>
  </defs>
  <path id="Path_4612" class="st1" d="M374,373.1c-2,0-4-0.2-6-0.7c-1.5-0.3-2.8-0.9-4.1-1.7c-0.8-0.6-1.3-1.2-1.3-1.7 c0.1-0.9,0.4-1.7,1-2.4c0.7-1,1.2-1.4,1.6-1.4c0.4,0.1,0.9,0.3,1.3,0.5c1,0.5,2,0.9,3,1.3c1.1,0.4,2.3,0.5,3.5,0.5 c1.3,0,2.7-0.3,3.8-1.1c1-0.7,1.6-2,1.5-3.2c0-0.8-0.3-1.6-0.8-2.3c-0.5-0.6-1.2-1.2-1.9-1.6c-0.8-0.4-1.8-0.9-3.2-1.5l-1.8-0.8 c-1.4-0.6-2.6-1.3-3.8-2.1c-1.1-0.8-1.9-1.8-2.6-3c-0.7-1.5-1.1-3.1-1-4.8c-0.1-1.9,0.5-3.8,1.6-5.4c1.1-1.5,2.5-2.6,4.2-3.3 c1.8-0.7,3.8-1.1,5.8-1.1c1.5,0,2.9,0.2,4.4,0.5c1.2,0.2,2.3,0.7,3.3,1.3c0.7,0.5,1,1,1,1.5c-0.1,0.8-0.4,1.6-0.9,2.3 c-0.6,1-1.1,1.4-1.5,1.4c-0.3,0-0.6-0.1-0.8-0.3c-0.4-0.2-0.6-0.3-0.9-0.4c-1.3-0.6-2.8-0.9-4.3-0.9c-1.4-0.1-2.8,0.3-4,1.1 c-0.8,0.7-1.3,1.7-1.3,2.7c0,0.9,0.2,1.7,0.8,2.4c0.5,0.6,1.1,1.1,1.9,1.5c0.7,0.4,1.8,0.8,3.3,1.4c1.6,0.6,3.2,1.4,4.7,2.3 c1.3,0.8,2.4,1.9,3.2,3.1c0.9,1.6,1.4,3.4,1.3,5.2c0,3.5-1.1,6.1-3.2,7.9C379.7,372.3,376.9,373.2,374,373.1z M401.4,373.1 c-4.3,0-7.5-1.1-9.6-3.4s-3.1-5.6-3.1-9.8c0-4.6,1-8,3.1-10.3c2.1-2.2,5-3.4,8.8-3.4c3.6,0,6.3,1.2,8,3.5c1.8,2.3,2.6,5.5,2.6,9.5 c-0.1,0.6-0.4,1.2-0.9,1.6c-0.6,0.7-1,1-1.4,1h-13.8c0,1.8,0.6,3.5,1.8,4.8c1.3,1.1,2.9,1.6,4.6,1.5c1.9,0,3.8-0.5,5.5-1.4 c0.3-0.2,0.7-0.3,1-0.3c0.4,0,0.9,0.4,1.5,1.3c0.4,0.6,0.7,1.3,0.8,2c0,0.6-0.5,1.2-1.5,1.8c-1.1,0.6-2.3,1-3.6,1.3 C404.1,372.9,402.8,373.1,401.4,373.1z M405,357.3c0.1-1.6-0.3-3.1-1.1-4.4c-0.8-1.1-2-1.7-3.3-1.6c-3.1,0-4.9,2-5.4,6H405z M419.5,372.8c-1.8,0-2.7-0.5-2.7-1.5v-16.4c0-1.6-0.1-3.3-0.3-4.9c-0.1-0.6-0.2-1.3-0.3-1.9c0-0.5,0.5-0.8,1.6-1.1 c1-0.2,2-0.4,2.9-0.4c0.5,0,0.9,0.3,1.2,0.7c0.2,0.5,0.4,1,0.5,1.5s0.2,0.9,0.2,1.1c1.5-2.5,3.4-3.8,5.5-3.8 c0.8-0.1,1.6,0.1,2.3,0.6c0.4,0.5,0.7,1.1,0.6,1.8c0,0.8-0.2,1.6-0.4,2.3c-0.3,0.9-0.6,1.4-1,1.4c-0.3,0-0.7-0.1-1-0.2 c-0.5-0.1-1-0.2-1.5-0.2c-1,0-1.9,0.3-2.6,0.9c-0.6,0.5-1.2,1.1-1.6,1.8v16.8c0,1-0.9,1.4-2.7,1.4h-0.7V372.8z M442.9,372.8 c-1.4,0-2.3-0.3-2.5-1l-8-23.5c0-0.1-0.1-0.2-0.1-0.4c0-0.2-0.1-0.3-0.1-0.5c0-0.7,0.9-1,2.7-1h1.2c1.4,0,2.3,0.3,2.5,1l3.4,10.7 c0.8,2.4,1.4,4.9,1.8,7.4h0.2c0.4-2.6,1-5.2,1.9-7.6l3.3-10.4c0.2-0.6,1.1-1,2.5-1h0.9c1.8,0,2.6,0.3,2.6,1c0,0.3-0.1,0.6-0.1,0.9 l-8,23.5c-0.2,0.6-1.1,1-2.6,1h-1.6V372.8z M470.4,373.1c-4.3,0-7.5-1.1-9.6-3.4s-3.1-5.6-3.1-9.8c0-4.6,1-8,3.1-10.3 c2.1-2.2,5-3.4,8.8-3.4c3.6,0,6.3,1.2,8,3.5c1.8,2.3,2.6,5.5,2.6,9.5c-0.1,0.6-0.4,1.2-0.9,1.6c-0.6,0.7-1,1-1.3,1h-13.8 c0,1.8,0.6,3.5,1.8,4.8c1.3,1.1,2.9,1.6,4.6,1.5c1.9,0,3.8-0.5,5.5-1.4c0.3-0.2,0.7-0.3,1-0.3c0.4,0,0.9,0.4,1.5,1.3 c0.4,0.6,0.7,1.3,0.8,2c0,0.6-0.5,1.2-1.5,1.8c-1.1,0.6-2.3,1-3.6,1.3C473.1,372.9,471.8,373.1,470.4,373.1z M474,357.3 c0.1-1.6-0.3-3.1-1.1-4.5c-0.8-1.1-2-1.7-3.3-1.6c-3.1,0-4.9,2-5.4,6h9.8V357.3z M488.5,372.8c-1.8,0-2.6-0.5-2.7-1.5v-16.4 c0-1.6-0.1-3.3-0.3-4.9c-0.1-0.6-0.2-1.3-0.3-1.9c0-0.5,0.6-0.8,1.7-1.1c1-0.2,2-0.4,2.9-0.4c0.5,0,0.9,0.3,1.1,0.7 c0.2,0.5,0.4,1,0.5,1.5s0.2,0.9,0.2,1.1c1.5-2.5,3.4-3.8,5.6-3.8c0.8-0.1,1.6,0.1,2.3,0.6c0.4,0.5,0.7,1.1,0.6,1.8 c0,0.8-0.2,1.6-0.4,2.3c-0.3,0.9-0.6,1.4-1,1.4c-0.3,0-0.7-0.1-1-0.2c-0.5-0.1-1-0.2-1.5-0.2c-1,0-1.9,0.3-2.6,0.9 c-0.6,0.5-1.2,1.1-1.6,1.8v16.8c0,1-0.9,1.4-2.7,1.4h-0.8V372.8z M511.1,373.1c-1.9,0.1-3.7-0.6-5.1-1.8c-1.3-1.2-1.9-3.2-1.9-5.8 v-29c0-0.9,0.9-1.4,2.6-1.4h0.9c1.8,0,2.6,0.5,2.6,1.4v28.9c-0.1,0.7,0.1,1.5,0.6,2.1c0.4,0.4,1,0.7,1.6,0.6c0.3,0,0.6,0,0.9-0.1 c0.2-0.1,0.4-0.1,0.6-0.1c0.4,0,0.7,0.4,1,1.3c0.2,0.6,0.4,1.2,0.4,1.9C515.5,372.4,514,373.1,511.1,373.1z M528.9,373.1 c-4.3,0-7.5-1.1-9.6-3.4c-2.1-2.3-3.1-5.6-3.1-9.8c0-4.6,1-8,3.1-10.3c2.1-2.2,5-3.4,8.8-3.4c3.6,0,6.3,1.2,8,3.5 c1.8,2.3,2.6,5.5,2.6,9.5c-0.1,0.6-0.4,1.2-0.9,1.6c-0.6,0.7-1,1-1.3,1h-13.8c0,1.8,0.6,3.5,1.8,4.8c1.3,1.1,2.9,1.6,4.6,1.5 c1.9,0,3.8-0.5,5.5-1.4c0.3-0.2,0.7-0.3,1-0.3c0.4,0,0.9,0.4,1.5,1.3c0.4,0.6,0.7,1.3,0.8,2c0,0.6-0.5,1.2-1.5,1.8 c-1.1,0.6-2.3,1-3.6,1.3C531.5,372.9,530.2,373.1,528.9,373.1z M532.5,357.3c0.1-1.6-0.3-3.1-1.1-4.5c-0.8-1.1-2-1.7-3.3-1.6 c-3.1,0-4.9,2-5.4,6h9.8V357.3z M550.5,373.1c-1.3,0-2.6-0.1-3.9-0.4c-1.1-0.2-2.1-0.6-3.1-1.2c-0.8-0.5-1.2-1.1-1.2-1.6 c0.1-0.8,0.4-1.5,0.9-2.1c0.6-0.9,1.1-1.3,1.5-1.3c0.4,0.1,0.8,0.3,1.1,0.5c0.6,0.3,1.2,0.6,1.9,0.8c0.7,0.2,1.5,0.4,2.3,0.4 c1,0.1,1.9-0.2,2.8-0.7c0.6-0.5,1-1.2,0.9-2c0-0.8-0.4-1.5-1-1.9c-1.1-0.7-2.2-1.2-3.4-1.6c-1.1-0.4-2.2-0.9-3.2-1.5 c-0.9-0.6-1.7-1.4-2.3-2.3c-0.7-1.2-1-2.5-0.9-3.9c-0.1-2.2,0.8-4.3,2.4-5.8c1.8-1.5,4.1-2.3,6.4-2.1c1.7,0,3.3,0.2,4.9,0.7 c1.5,0.5,2.3,1.1,2.3,1.9c-0.1,0.8-0.3,1.5-0.7,2.2c-0.5,0.9-0.9,1.3-1.3,1.3c-0.5-0.1-1-0.3-1.4-0.5c-1-0.4-2-0.6-3.1-0.6 c-0.8,0-1.7,0.2-2.4,0.6c-0.6,0.4-0.9,1.1-0.9,1.8c0,0.7,0.3,1.4,0.9,1.9c1,0.6,2,1.1,3.2,1.5c1.8,0.6,3.5,1.5,4.9,2.8 c1.3,1.4,2,3.3,1.8,5.2c0.1,2.3-0.9,4.5-2.6,5.9C555.4,372.4,553,373.3,550.5,373.1L550.5,373.1z M571.1,373.1 c-1.3,0-2.6-0.1-3.9-0.4c-1.1-0.2-2.1-0.6-3.1-1.2c-0.8-0.5-1.2-1.1-1.2-1.6c0.1-0.8,0.4-1.5,0.9-2.1c0.6-0.9,1.1-1.3,1.5-1.3 c0.4,0.1,0.8,0.3,1.1,0.5c0.6,0.3,1.2,0.6,1.9,0.8c0.7,0.2,1.5,0.4,2.3,0.4c1,0.1,1.9-0.2,2.8-0.7c0.6-0.5,1-1.2,0.9-2 c0-0.8-0.4-1.5-1-1.9c-1.1-0.7-2.2-1.2-3.3-1.6s-2.2-0.9-3.2-1.5c-0.9-0.6-1.7-1.4-2.3-2.3c-0.7-1.2-1-2.5-0.9-3.9 c-0.1-2.2,0.8-4.3,2.4-5.8c1.8-1.5,4.1-2.3,6.4-2.1c1.7,0,3.3,0.2,4.9,0.7c1.5,0.5,2.3,1.1,2.3,1.9c-0.1,0.8-0.3,1.5-0.7,2.2 c-0.5,0.9-0.9,1.3-1.3,1.3c-0.5-0.1-1-0.3-1.4-0.5c-1-0.4-2-0.6-3.1-0.6c-0.8,0-1.7,0.2-2.4,0.6c-0.6,0.4-0.9,1.1-0.9,1.8 c0,0.7,0.3,1.4,0.9,1.9c1,0.6,2,1.1,3.2,1.5c1.8,0.6,3.5,1.5,4.9,2.8c1.3,1.4,2,3.3,1.8,5.2c0.1,2.3-0.9,4.5-2.6,5.9 C576.1,372.4,573.6,373.3,571.1,373.1z M617.2,353.8c0.5,0,1,0.1,1.4,0.4c0.3,0.4,0.5,0.9,0.5,1.4v13.7c0,1.4-1.2,2.4-3.5,3 c-2.6,0.6-5.3,0.9-8,0.8c-5.4,0-9.4-1.5-12.1-4.4c-2.7-2.9-4-7.4-4-13.4c0-11.9,5.5-17.9,16.5-17.9c1.6,0,3.2,0.2,4.7,0.5 c1.4,0.2,2.7,0.6,4,1.2c1,0.5,1.6,1.1,1.6,1.7s-0.2,1.1-0.5,1.6c-0.3,0.6-0.7,1.2-1.1,1.7c-0.3,0.4-0.7,0.7-1.2,0.8 c-0.4-0.1-0.8-0.3-1.2-0.5c-0.9-0.4-1.8-0.7-2.7-0.9c-1.2-0.3-2.5-0.4-3.7-0.4c-3.4,0-5.8,1-7.4,3.1c-1.6,2-2.3,5.1-2.3,9.1 c0,8.2,3.1,12.3,9.5,12.3c1.6,0,3.2-0.1,4.8-0.4v-7.6h-4.9c-0.4,0-0.8-0.2-1-0.5c-0.3-0.5-0.4-1.1-0.3-1.7v-1.3 c0-0.6,0.1-1.1,0.3-1.6c0.2-0.3,0.6-0.5,1-0.5h9.6V353.8z M633.5,373.1c-5.1,0-7.6-2.7-7.6-8.1v-17c0-0.5,0.2-0.9,0.6-1.1 c0.6-0.3,1.3-0.4,2-0.4h1c1.8,0,2.6,0.5,2.6,1.5v16.2c0,2.5,1.3,3.7,3.8,3.7c1,0,1.9-0.3,2.7-0.9s1.5-1.3,2.1-2.2V348 c0-1,0.9-1.5,2.6-1.5h1c1.8,0,2.7,0.5,2.7,1.5v16.5c0,1.7,0.1,3.3,0.3,5c0.1,0.6,0.2,1.3,0.3,1.9c0,0.5-0.5,0.8-1.7,1.1 c-1,0.2-2,0.4-3,0.4c-0.5,0-1-0.3-1.1-0.7c-0.2-0.5-0.4-1-0.5-1.6s-0.2-0.9-0.2-1.1c-0.9,1.1-2.1,2-3.4,2.7 C636.4,372.7,634.9,373.1,633.5,373.1z M656.7,372.8c-1.8,0-2.7-0.5-2.7-1.5v-16.4c0-1.6-0.1-3.3-0.3-4.9c-0.1-0.6-0.2-1.3-0.3-1.9 c0-0.5,0.6-0.8,1.7-1.1c1-0.2,2-0.4,2.9-0.4c0.5,0,0.9,0.3,1.2,0.7c0.2,0.5,0.4,1,0.5,1.5s0.2,0.9,0.2,1.1c1.5-2.5,3.4-3.8,5.5-3.8 c0.8-0.1,1.6,0.1,2.3,0.6c0.4,0.5,0.7,1.1,0.6,1.8c0,0.8-0.2,1.6-0.4,2.3c-0.3,0.9-0.6,1.4-1,1.4c-0.3,0-0.7-0.1-1-0.2 c-0.5-0.1-1-0.2-1.5-0.2c-1,0-1.9,0.3-2.6,0.9c-0.6,0.5-1.2,1.1-1.6,1.8v16.8c0,1-0.9,1.4-2.7,1.4h-0.8V372.8z M679.6,373.1 c-5.1,0-7.6-2.7-7.6-8.1v-17c0-0.5,0.2-0.9,0.6-1.1c0.6-0.3,1.3-0.4,2-0.4h1c1.8,0,2.7,0.5,2.7,1.5v16.2c0,2.5,1.3,3.7,3.8,3.7 c1,0,1.9-0.3,2.7-0.9s1.5-1.3,2.1-2.2V348c0-1,0.9-1.5,2.7-1.5h1c1.8,0,2.6,0.5,2.6,1.5v16.5c0,1.7,0.1,3.3,0.3,5 c0.1,0.6,0.2,1.3,0.3,1.9c0,0.5-0.5,0.8-1.6,1.1c-1,0.2-2,0.4-3,0.4c-0.5,0-1-0.3-1.2-0.7c-0.2-0.5-0.4-1-0.5-1.6s-0.2-0.9-0.2-1.1 c-0.9,1.1-2.1,2-3.4,2.7C682.5,372.7,681.1,373.1,679.6,373.1z"/>
  <g id="Group_13">
    <linearGradient id="Path_1_5_" gradientUnits="userSpaceOnUse" x1="0.5133" y1="3.9971" x2="1.4618" y2="5.2116" gradientTransform="matrix(45.8568 0 0 48.0483 274.3383 127.0293)">
      <stop offset="0" style="stop-color:#6316C9"/>
      <stop offset="1" style="stop-color:#B11244"/>
    </linearGradient>
    <path id="Path_1_2_" class="st6" d="M325.3,338c12.7-0.1,23.2,10.1,23.3,22.8c0.1,12.6-9.8,22.9-22.4,23.3h0.5h-5.7l-18-27.1 l6.4,0.5L288,321.8c16.4-4.5,28.8,2.8,34.9,16.4C323.6,338,324.4,338,325.3,338z"/>
    <linearGradient id="Path_2_5_" gradientUnits="userSpaceOnUse" x1="0.4805" y1="4.855" x2="1.0904" y2="5.7281" gradientTransform="matrix(50.3821 0 0 45.206 237.6037 127.0449)">
      <stop offset="0" style="stop-color:#48A0F9"/>
      <stop offset="1" style="stop-color:#6316C9"/>
    </linearGradient>
    <path id="Path_2_2_" class="st7" d="M304.1,384h-39.4c-10.7,0-19.4-8.7-19.4-19.4s8.7-19.4,19.4-19.4l0,0c0.4,0,0.7,0,1.1,0 c0.8-4.4,2.5-8.5,5-12.2c2.5-3.6,5.7-6.6,9.4-8.7l16.3,26.2l-7.3-1.1L312,384L304.1,384z"/>
  </g>
</svg>